amb
1
 1.937598633358418 41.27478483414137
 1.9395107014388508 41.27688023577668
 1.943602894739965 41.279180821007344
 1.943662047762805 41.279214080364525
 1.943012982558736 41.280260510313596
 1.9376422008801868 41.28230918489757
 1.9359656605197177 41.28350669995024
 1.9319073063703425 41.2850850491301
 1.9310920168722807 41.2859838337408
 1.9292332450337946 41.28682048711981
 1.9268518459550563 41.2891116172212
 1.9261185773498697 41.29062864449037
 1.9248575612497376 41.29099790632729
 1.915218909491397 41.288861928130316
 1.9135792449625326 41.28833845847579
 1.9115803001234766 41.28492111911446
 1.9087678886859336 41.28243890503598
 1.9059808615596514 41.28267619387245
 1.9017603225469832 41.28020047550767
 1.889576520315588 41.28342111002716
 1.8874611794761582 41.28194399731855
 1.8859285953164036 41.28187418452103
 1.8860872306381866 41.28000487788137
 1.8831490404225004 41.27821948219548
 1.8761236472992282 41.27912607989813
 1.8741760195527986 41.279377334962696
 1.872526593867084 41.27917725470532
 1.8717364737917284 41.2788224948268
 1.8713864197814098 41.28053113698625
 1.8696574230780938 41.281197993398315
 1.8696569935494576 41.281198155668065
 1.8714191899004433 41.28994194116943
 1.871684468029167 41.29125842118628
 1.8730710716992027 41.293207814177485
 1.8732443754986992 41.29345145058665
 1.8732447896024707 41.293452040754396
 1.8707098926472217 41.29532539980878
 1.8695223378848873 41.2962029822836
 1.8695219749099476 41.296202997674854
 1.8694739953051833 41.29620188990226
 1.867872018613067 41.296164930453486
 1.8676993886194122 41.29617554857611
 1.8664578341485898 41.29625188853476
 1.8652422609938375 41.29613845166536
 1.8646665844072599 41.29608471599129
 1.8638930697399447 41.29611748618013
 1.8627229925753435 41.29643714017883
 1.8623549092391949 41.29662380702845
 1.862107851520275 41.29699440137448
 1.861902071035886 41.297597367704235
 1.8619019527130323 41.297670371917064
 1.8619012265652524 41.29822762864369
 1.8618280693602274 41.2985278529038
 1.861570359739269 41.29875481469285
 1.8604367535612396 41.2992440158969
 1.8599989169206028 41.29924468210836
 1.8599950795555351 41.29924469594765
 1.8599931665782696 41.29924361634388
 1.8596960878898687 41.29907729266151
 1.859597127623793 41.298841243242705
 1.859362274242835 41.298281081667064
 1.8591518387490658 41.29801989471097
 1.8587947325212173 41.298026007885426
 1.8587940706615138 41.298026017881234
 1.8587814133008609 41.298029358023314
 1.8583022816039252 41.29815488248796
 1.8578678994448472 41.29835610308616
 1.8566980393897667 41.29889800351935
 1.8562239948874344 41.29894508738598
 1.8554327247067501 41.29873550871042
 1.8554324231650463 41.29873546743816
 1.855230045951473 41.29883837601721
 1.8543510377271772 41.299285387273684
 1.8547948135952348 41.300437073391706
 1.8513738096298402 41.3017971383408
 1.8470831832102983 41.306398787803175
 1.8470829119068783 41.30639907386426
 1.8470853290242373 41.30640396883824
 1.8485036624912004 41.30929216840076
 1.8485971552444496 41.31007044243401
 1.84859731427472 41.31007153865964
 1.848550603377271 41.31176298489625
 1.8485228682831631 41.31276668715853
 1.850418782962082 41.31569406423499
 1.8507076535609557 41.31614016095374
 1.8507080649643195 41.31614071530303
 1.8501021281560128 41.3181110560915
 1.848660662609986 41.31899170108851
 1.8480915886003213 41.31933939607886
 1.8480924593138364 41.31933930079412
 1.8507152574908146 41.31907012747691
 1.8509238121520093 41.319048702439574
 1.8509242050269785 41.31904868584274
 1.8519171024746244 41.31923181581489
 1.8528932407874157 41.32000038123568
 1.8528938109034772 41.320000820825946
 1.8558953822030486 41.32594247270928
 1.8564653264602755 41.32707054433309
 1.8564849445410254 41.32708265723023
 1.8578425250443054 41.32792163340207
 1.8580259282879765 41.32813895791474
 1.8580261771842934 41.328140054823464
 1.8582031356353035 41.32891474578339
 1.8584481699745352 41.329318533271504
 1.8588255636110722 41.32958974836817
 1.8588267752061554 41.32959061996446
 1.8588349633254393 41.32959184009918
 1.8592978336771522 41.329660703501055
 1.8598028111799783 41.32960363088713
 1.859807127905344 41.32960313306014
 1.8604910403139059 41.33028544948167
 1.8604755116070757 41.33071772512415
 1.8604755289173065 41.33071827811065
 1.860475361794295 41.33071900096845
 1.860145158112103 41.332055772929195
 1.8602915361124965 41.33241850435982
 1.8602916239412932 41.33241872122945
 1.8603859307175956 41.33253128311887
 1.8610783075919157 41.33335778037254
 1.8613690515194479 41.333732594509634
 1.8615675658163775 41.33383224304661
 1.8618216397837675 41.33387549031883
 1.8623433387625454 41.33430354910164
 1.8629288302571774 41.334305760677
 1.863157182747276 41.33442431784617
 1.863922929843097 41.33482187436477
 1.8640594795444894 41.3348394477954
 1.8645018789259225 41.33489639511557
 1.8653356838655002 41.33518516778639
 1.8657500859051086 41.33545573183104
 1.8667324372341756 41.336101774172434
 1.867370583153464 41.33652146028063
 1.8718794859777288 41.33853220333049
 1.8719057590576214 41.3385439221686
 1.8719054833745699 41.33854446957708
 1.8709628579492847 41.34047465069841
 1.8697071334368263 41.34200975416987
 1.8697039747860469 41.34201361110399
 1.8697043540753857 41.34201413072802
 1.8701452504882932 41.34264311437562
 1.8722053273835273 41.34367214315089
 1.8739950386710602 41.344280398623134
 1.8743653297435714 41.34428910263195
 1.8746772814788286 41.34429643696412
 1.874902722334437 41.34427156186288
 1.877461850991309 41.34398910230025
 1.878889969679409 41.34423451868898
 1.87889832597526 41.34423434816869
 1.8794310838027588 41.34422371138761
 1.8804885363738189 41.34420259214726
 1.8812721496231537 41.344011546914565
 1.8819199237094213 41.34385359897016
 1.8827716577539575 41.34387077148072
 1.88278143331736 41.34387096798566
 1.8833351188346885 41.3448828144728
 1.883638401413401 41.34510397815083
 1.8847903265887687 41.34564917954913
 1.887405056296547 41.347059482008355
 1.888799927574849 41.34765731808974
 1.8893672169726898 41.34774991193077
 1.8893684512958488 41.34775012046724
 1.8897432419620048 41.34796827080694
 1.890751958723119 41.34906285343264
 1.890900868588552 41.34922443075123
 1.8913927065118654 41.3498877266275
 1.8922720273306957 41.350504852729735
 1.892275615847757 41.35050737385512
 1.8926284193387344 41.35059135195339
 1.8943841495534632 41.35074158858148
 1.8951792230108484 41.350986776214135
 1.896219091401352 41.3514734311443
 1.8962194208459102 41.35147360166614
 1.8969403165542875 41.35303467941657
 1.8969900315777026 41.35314238169614
 1.897017207427913 41.35317830252066
 1.8976403367291461 41.35400190165361
 1.8982505909088225 41.35480826548921
 1.8985868922756306 41.35496893450709
 1.8995312945450729 41.35542011692507
 1.8996507392790791 41.35547717943474
 1.9003429241743495 41.35561928069846
 1.9016853008136696 41.354886711823326
 1.9042594798090426 41.35479361173713
 1.9066892432485794 41.35278217509
 1.9101959341812629 41.352437456416496
 1.9102354663515242 41.35243356879041
 1.9111126540766448 41.353285129169855
 1.9115529158567761 41.35580694768445
 1.9124459305691806 41.35432817553254
 1.9178377451826791 41.35278274182124
 1.9193931335530403 41.35233686840397
 1.9256994565962597 41.35151775076554
 1.9280252088843202 41.35080465760368
 1.9282922214004745 41.35072277798402
 1.9322844601110911 41.35042466618118
 1.9379274156445752 41.351425594994
 1.9415867543998067 41.35035650123345
 1.9445349141977426 41.35000442707749
 1.94575900790769 41.350069858195056
 1.947641309414517 41.352202955263614
 1.9473748300378975 41.35246377628156
 1.9455723470918669 41.35422783839049
 1.9464405006404835 41.356539766940315
 1.9490370186578196 41.36224617743379
 1.9514577820098198 41.36343599802553
 1.952316616066433 41.36576793863294
 1.954225443893746 41.3677732096343
 1.9534060562145432 41.367999898977885
 1.9507536122300164 41.36973497664257
 1.9505039188632698 41.37151078432228
 1.9503269349852357 41.37276947010466
 1.9507851201615347 41.37486548342088
 1.9495832241593625 41.375564436377466
 1.9487941318927628 41.37808283649873
 1.9495411841985397 41.37847544494874
 1.9489300289593563 41.38505452611787
 1.948171691435293 41.38612201875528
 1.947207519181989 41.38747920675624
 1.9469440276619756 41.38785008652387
 1.9458741373671962 41.38935594994216
 1.9458420199609296 41.38935989530226
 1.9456050028150234 41.3893888420265
 1.945198556757803 41.38943853533795
 1.9445924388865001 41.390455020796864
 1.9435716594037196 41.39216686699978
 1.9435408925083564 41.39221846167577
 1.9411155768560264 41.396285343696704
 1.9378626902553566 41.397857467387006
 1.933624182518721 41.39863421916452
 1.9335177928673162 41.39865368912944
 1.9334291717258176 41.398669928344965
 1.9326011061279431 41.39794093784563
 1.932121954276622 41.397519113611104
 1.9313906262884921 41.397964142493755
 1.928672876918884 41.39634495687769
 1.9285677325761619 41.39634823909776
 1.9277065130308526 41.39637521162368
 1.927989488354603 41.395292315407154
 1.9282626817619548 41.39424682910785
 1.9276038256123833 41.39358856741197
 1.9253786199412906 41.39288454132062
 1.9246753634697713 41.39266203547304
 1.9244088205014531 41.39244154607094
 1.9226477271308906 41.390984916480186
 1.9224691905096916 41.38988404936275
 1.917538541663565 41.38824126611176
 1.9173975658733111 41.38835822972702
 1.9162333165652754 41.38932415407793
 1.910839500642136 41.389771719571065
 1.9100216814516953 41.38969908183043
 1.9090110496389079 41.38960930885514
 1.9086372610537594 41.389576119509194
 1.9005722673439431 41.390759209735144
 1.8968101464410136 41.3898562555365
 1.8944530510785853 41.38983398650043
 1.8924908838373506 41.38981539919902
 1.8896793698032741 41.38961872003488
 1.8786693895227817 41.38884784861303
 1.8769458512409007 41.38943740635821
 1.876781529979449 41.389493618680305
 1.8750744274839757 41.39495976699185
 1.875918743921925 41.398885386370445
 1.8760916844187359 41.399062853296726
 1.8765664423777477 41.399550012666495
 1.8777013787994965 41.403220999072126
 1.877971103257872 41.4040933353098
 1.8785663780792619 41.40446150566857
 1.879575842911798 41.40508584524951
 1.8828732108992092 41.40551391612095
 1.8832547138865023 41.406775064213726
 1.883486615471439 41.406956632104794
 1.884181794700657 41.40750088702854
 1.8847136095535657 41.40775831952868
 1.8853599464333595 41.408071181502486
 1.8854480144061088 41.408113804660545
 1.885379678780234 41.408160253193834
 1.8827056410139094 41.40997775606098
 1.8813461514220833 41.41178283240597
 1.882832363239001 41.41469072181167
 1.8864939902232443 41.41599229088597
 1.8871695505363468 41.41670069695265
 1.8881381707608296 41.41797617051566
 1.8897557894320482 41.42246240625367
 1.8875916549548584 41.423111697295354
 1.8875573571311854 41.42392347369491
 1.8878144261025451 41.424204451450564
 1.8910632574647144 41.42775526321525
 1.8911468679560217 41.428008017182044
 1.8919150064815449 41.430329951156516
 1.8944433605252835 41.430382521271795
 1.8949671574245284 41.4302227506807
 1.894868260770816 41.430119035097775
 1.8948972191302653 41.43001570884759
 1.8949808748685435 41.429963222389596
 1.8950825500356219 41.429924854546414
 1.8953665778075306 41.429793633173716
 1.8955535040192473 41.429723979858174
 1.8959387249683761 41.429548029446835
 1.8961284100066524 41.42943997299203
 1.896551627443076 41.42924325733209
 1.8968973462926266 41.42897275016256
 1.897038055822402 41.428823816448414
 1.89718305760853 41.42873187049708
 1.8973409383872097 41.42881089253951
 1.8974533481431433 41.428958554145886
 1.8976890985531043 41.42906283879814
 1.898072712144207 41.429113168111286
 1.8981898717289538 41.429155811580365
 1.89853491114661 41.42919825725029
 1.8989132069816321 41.42934600392093
 1.8991641050782768 41.42944963800008
 1.899421874819159 41.42964445329621
 1.8994536109753484 41.429763160494645
 1.8998980009047692 41.43011580641462
 1.9001239286572331 41.43039202112965
 1.900382726198784 41.430701135065334
 1.9007686965774087 41.431084858696615
 1.9010437719220945 41.431307517168285
 1.9013772781713743 41.43149909450298
 1.9016530540016785 41.431630246461765
 1.902132423637326 41.43174126733018
 1.902431184701383 41.43177424333727
 1.9026490634687352 41.43174206742519
 1.902839068143124 41.431642475581974
 1.9031173596486792 41.43150480851859
 1.9034809300119995 41.4312891728829
 1.903783654983516 41.43117332905999
 1.904237824906834 41.43105101302748
 1.9045902815868785 41.43099021385132
 1.9051651738019366 41.43085701785544
 1.9057940981246517 41.43083585314523
 1.9064506401052124 41.43097930272917
 1.907215948603932 41.43125531130285
 1.907444578192127 41.431365596258935
 1.9076407694479578 41.43144868193905
 1.9082137689270937 41.431692886695174
 1.9084621061816982 41.431762306440014
 1.908921957094652 41.432017063943896
 1.9091838940910157 41.43216594097104
 1.9094726793840795 41.432267931398954
 1.909520265476917 41.432294481676585
 1.9097117258671774 41.432314877084075
 1.9098800389008124 41.43233054526539
 1.9101165041323627 41.43234329742584
 1.9102705336173742 41.43237101049518
 1.910614302017451 41.43239632306546
 1.9108983541982898 41.43243562335761
 1.911203400140722 41.43245115582415
 1.91154803140417 41.43248786211032
 1.9118493809778574 41.432555005668156
 1.9121561513136571 41.43259333050055
 1.9124739398067814 41.43267692032663
 1.9127854477383 41.43277793055111
 1.9131084068169066 41.4329299034119
 1.9133846395739769 41.433066724270574
 1.9135845368229445 41.4330981862944
 1.9138796781381926 41.43298264049604
 1.914369114022469 41.43282447117715
 1.9149128462443108 41.432681126060764
 1.9156134389886226 41.4325024730975
 1.9160007325608792 41.43240012634357
 1.9163488716622525 41.43228230406865
 1.9165810250446624 41.4322380557644
 1.916930886377822 41.43214302665996
 1.9173424297930768 41.43195959509664
 1.9179473980806696 41.43172213709437
 1.9184975798039172 41.43166425633881
 1.9187522042657508 41.43171623258403
 1.919187077634412 41.43164042176242
 1.9195174530520975 41.43162626045844
 1.919728066911557 41.43162203727554
 1.9198603314309104 41.4316310384177
 1.919964557871095 41.43165591246853
 1.9201441402057942 41.431710564194375
 1.9203145601326344 41.43177294443957
 1.9205141265857812 41.431834074787375
 1.9206858075229258 41.43184872098788
 1.9209349352861875 41.431856377282585
 1.9211257706512865 41.43186653261685
 1.9213106408451284 41.431862273254225
 1.9214944037745776 41.43184339000293
 1.9217628380959908 41.431784198091094
 1.9220004636320698 41.43170432071247
 1.9221716163807387 41.43158328150247
 1.922493232269512 41.43138976914986
 1.9225927513290797 41.43135249132953
 1.9227508400513815 41.4313163682448
 1.9229278047055507 41.431272101067755
 1.9230349500734274 41.43127117205285
 1.9231674920623913 41.43128382545408
 1.923277129517807 41.431315799434685
 1.9233644174773812 41.43137440533269
 1.9234587777217553 41.431462049894215
 1.9235539690222496 41.43156066269654
 1.9236134287117659 41.43159883334879
 1.9237136868439486 41.43169373351064
 1.9238914978001822 41.43183475213471
 1.9240254696661034 41.43193191315708
 1.9242707884139347 41.43202810760923
 1.9244784690696497 41.43209542558973
 1.9249684003850176 41.43221161397927
 1.9254423265882645 41.43231705371361
 1.9256533295493643 41.43236135827532
 1.9259238929892735 41.43245646562788
 1.9261795996170787 41.43255602209156
 1.9264885342902092 41.43262280121466
 1.926774684595964 41.43265625462229
 1.926907375853689 41.432669615699645
 1.9275784724819875 41.432770392800954
 1.927871111557969 41.43282262145328
 1.9281612957878485 41.432909258649815
 1.9284529210726784 41.433014890726554
 1.9286908973944032 41.43308089991831
 1.9289282979508944 41.43313931015136
 1.9293518920341708 41.43331550021085
 1.9297277486036533 41.43346324833381
 1.929993562274489 41.43356236197419
 1.9304703853703877 41.433705770266016
 1.9306561541548277 41.43375114868563
 1.9309205292228755 41.43383126533842
 1.9311836028457954 41.4339609848171
 1.93178590557844 41.434289568122715
 1.9321761641668638 41.4345068193208
 1.9324389558613653 41.43463273771544
 1.9326097245379021 41.43474736350715
 1.932734919967566 41.434795342870686
 1.9330614679567593 41.43482704397155
 1.9333049367236421 41.4348318245844
 1.9336262941108795 41.43479514129673
 1.933956593047981 41.434742826333064
 1.9343272787487493 41.434688774858756
 1.934662191512795 41.43469724309595
 1.935374423832482 41.43487243328523
 1.9356836653724632 41.434942986097795
 1.936368784951063 41.43502786159248
 1.9370712125978558 41.43507387429675
 1.9375451690009335 41.43504586050441
 1.9378904632415928 41.434924284072856
 1.9381818095105336 41.43475928986619
 1.938436810935955 41.43464921932069
 1.9389165369431114 41.4346971805958
 1.9391366454511931 41.434794428531376
 1.9399025568139385 41.435142606606284
 1.9405426966944437 41.43543521139793
 1.9410717822741919 41.435732593146206
 1.9414326689662356 41.43581615207528
 1.9429448982751292 41.43625413779799
 1.9436980949645313 41.43616833439839
 1.9443148696122485 41.436286597799885
 1.9445906745567498 41.43645004027025
 1.944878931809466 41.43691023887017
 1.9449386657666266 41.437029631059836
 1.9448965861022542 41.43727537637378
 1.9448799024409889 41.43758863313404
 1.9449468423141534 41.43766959991118
 1.9453262035263537 41.4377294816884
 1.9456377800646942 41.43783039743228
 1.9459825379831321 41.43796799713969
 1.9462127632458028 41.43806479422938
 1.9466775788979602 41.43844877237234
 1.946807151745589 41.438687119121006
 1.946946245675042 41.4389174321241
 1.947156596802744 41.43915229628606
 1.9473075234286912 41.43940496728771
 1.947463658814059 41.4397260192177
 1.9475655770610927 41.440133260394695
 1.948205221363167 41.44041821933151
 1.9484467133436576 41.44052977226197
 1.948502464021574 41.44086277442782
 1.9487851851380187 41.44085058279349
 1.9493625209283165 41.44111535348485
 1.9497168238001397 41.44124490676726
 1.9506756221775432 41.44133250854012
 1.9505377507931767 41.44136569956736
 1.9498020025352851 41.441450945578055
 1.949801148122812 41.44145166668723
 1.9495216964967037 41.44183533661398
 1.949260527005666 41.44219396774165
 1.9485080456680692 41.44270061328676
 1.9479243346923947 41.443093617793615
 1.9479175291352142 41.443098210335535
 1.9479160505252862 41.443102990954166
 1.9477636055507759 41.44359104243834
 1.9470238665655124 41.4451895118346
 1.946955322855231 41.44530157043139
 1.9463965072951932 41.44621515776805
 1.946396005494832 41.446215953687556
 1.9478546583916863 41.44682832098445
 1.9486143698596607 41.448010191351344
 1.9486148680902033 41.44801099817575
 1.9485334558117149 41.44870163607621
 1.9484985670242772 41.44899738954793
 1.9489402169488388 41.44929877969713
 1.949221823069387 41.44949095072839
 1.949962851308475 41.44999665049138
 1.951139646465692 41.450206935964104
 1.9514044677323723 41.45038459828686
 1.9514676036067182 41.45075434225496
 1.951227734148644 41.45117202136052
 1.9511635972497254 41.451514183009735
 1.9511482917767005 41.4519051463468
 1.951174227065904 41.45224535199108
 1.9511818175417621 41.45234491228712
 1.9515468570777625 41.452990976897595
 1.9521053943140303 41.4541038422998
 1.9526699057383212 41.45489471542097
 1.9526441975646445 41.455657157083756
 1.9519945347186403 41.45562216680697
 1.9516291417885903 41.455610436516174
 1.95137864964589 41.455824813085485
 1.9512585483463216 41.45591397053632
 1.951239978971317 41.45606003468768
 1.9512639394224685 41.45627689386543
 1.9512376011128263 41.456613251528175
 1.9511876789054206 41.45712693147521
 1.9511794734484607 41.45716485384251
 1.9506610567870653 41.45821361146217
 1.9505811634507213 41.45830473122279
 1.950155026122927 41.458978520194265
 1.9496125270828728 41.45952099620567
 1.9493996320335725 41.459679092008024
 1.9485607481592575 41.46057788524636
 1.948115498071987 41.46123594392233
 1.947992345169263 41.46211366682869
 1.9524692467307796 41.46331764329185
 1.9522134521385366 41.46343644518702
 1.9524896414575073 41.46372124869772
 1.9527737333505664 41.46408577904399
 1.9529718887422876 41.46439267914093
 1.953591018084741 41.46485783224007
 1.952661124437497 41.465448183331766
 1.9533256819219387 41.46568960547274
 1.9516870353232931 41.467119292823206
 1.952203086916629 41.46744868763136
 1.9516491930664592 41.4677146053028
 1.9521103568194824 41.468586573019095
 1.95111371537615 41.471997404486864
 1.9465164466368157 41.46711726431459
 1.9455076494364372 41.467231096421195
 1.9399606214033003 41.472534243479465
 1.938622707897586 41.473813169599275
 1.9384389454663071 41.47517160554998
 1.9363299634737239 41.47577441785514
 1.9345942151757474 41.477669481476674
 1.934243883045278 41.47884714295905
 1.933888770589924 41.480040725307965
 1.933676709199123 41.48338955725718
 1.933028763510229 41.48556982461181
 1.9249494407443932 41.48813121652487
 1.9223990315685004 41.49018490942035
 1.9214660101797165 41.49398948891671
 1.9226776873389957 41.496061738341766
 1.9247746611454897 41.497187201161125
 1.9243191614165986 41.49654836928564
 1.9247420729349656 41.495649566278274
 1.924816119131821 41.495622474967384
 1.9257109491823432 41.49529502453397
 1.926501612105584 41.49500567303965
 1.9295519897381879 41.49544298082245
 1.9314090163329256 41.49702878232388
 1.9332062647155184 41.50002956014867
 1.9336793735630107 41.50073792051951
 1.9332069677455208 41.50255889038759
 1.9344249395754145 41.504867073885094
 1.9357309651662238 41.50519635150345
 1.936464409427564 41.5077504421488
 1.9370595615883681 41.50942576301806
 1.9373688577735262 41.50824814405814
 1.9375330723922295 41.50762283664721
 1.9410255222280226 41.50693228727187
 1.9410257192057574 41.50693227878848
 1.9459318363652423 41.507657148150436
 1.9459534262384501 41.50766327961781
 1.9516372271404472 41.50927865823733
 1.951735119324311 41.50930647504289
 1.9546274594371607 41.50986997355896
 1.9585440973351036 41.510632901191556
 1.9586964149192079 41.510904874260675
 1.9586967018776416 41.510905415561986
 1.959695989547744 41.51128536330849
 1.9605428853976692 41.511481013056134
 1.960549530967031 41.511482548877744
 1.9613332372851726 41.51311424744116
 1.9695028192679283 41.51186926167466
 1.9695808696578216 41.51226201630881
 1.9698479765391377 41.512501081116504
 1.9701853023148235 41.51280302082763
 1.9703108977961135 41.51334677932962
 1.9703107432759377 41.5133485911872
 1.9702299885732941 41.5143226670221
 1.9707444951249096 41.51493958708882
 1.9707453517262778 41.514939901101606
 1.9712252349994241 41.5151168195488
 1.9712869834474065 41.51514115815464
 1.9713030992718197 41.515194466105186
 1.9716675507804649 41.51611194563767
 1.9717039144174608 41.51620346746662
 1.971810429952724 41.516293533566255
 1.9725749971157733 41.51693998436749
 1.9734554274149563 41.51838404374917
 1.974109923646549 41.519457393306155
 1.9745260307352197 41.51974447286725
 1.9745273518119477 41.519745374431864
 1.9756180151512923 41.519752089507286
 1.975691389207438 41.519756761500695
 1.9757026338484744 41.519756863494194
 1.9788155845359048 41.52314214522657
 1.9788398314650177 41.52316851058124
 1.9788398837086951 41.52316856683514
 1.9796081459064327 41.5210110015872
 1.9813664726615958 41.51614297274792
 1.9815542616234683 41.515622994912924
 1.9854431346536356 41.514643744618205
 1.9862649917909019 41.51255412130754
 1.98627871056475 41.508378292910926
 1.987059133715194 41.505435185196944
 1.9877080521433428 41.50049173980445
 1.9876601642833502 41.50001554214262
 1.9874461693869636 41.4994227489846
 1.9880562036496872 41.49925271679676
 1.9883999694755916 41.49577994931076
 1.9888864880172452 41.495415535841474
 1.988331482842743 41.49426925093809
 1.988731700467455 41.4938663885561
 1.9886903923466115 41.49286655412057
 1.9898166228228114 41.4914670585019
 1.9913264899021887 41.48666624646487
 1.9952810543505066 41.48577381169897
 1.9954742917043349 41.485502001008385
 1.996350315075784 41.48426984871238
 1.9968431273912295 41.48196096783419
 1.9964398089600972 41.480926306191044
 1.9972966012747935 41.47806135585254
 1.9970477873399384 41.47541597955963
 1.9970333107540306 41.47526211382198
 1.998379413301874 41.47283728383883
 2.003110549418421 41.47318813623059
 2.0032376437960377 41.472192250919264
 2.003859663045991 41.47187813887094
 2.0049466458512994 41.469371704327
 2.006133599420764 41.468628509354176
 2.006134877138287 41.468627709035964
 2.006065387712599 41.467428627725056
 2.005809547465886 41.463014851097654
 2.0037293105314657 41.46289741896123
 2.003132042330181 41.461663014641424
 2.0066201956200005 41.46158398466935
 2.0099937508951062 41.46171525772341
 2.0144643493684353 41.4631939855354
 2.0150757544006503 41.4639357478162
 2.014807677707786 41.465553917575285
 2.01699572036223 41.46825777941709
 2.017877411674668 41.46867424878565
 2.01806791969465 41.46872379790457
 2.0180895143585422 41.46874409209827
 2.0206799500329433 41.46896274961227
 2.026184274900888 41.46723620966524
 2.0279155319671394 41.466699736627774
 2.0280773308727773 41.46664960989667
 2.028867341957677 41.467046796580995
 2.0289248833122135 41.46707573180371
 2.0290282644934345 41.4671277137611
 2.029146341551167 41.46718707244156
 2.03078444584331 41.46801057960889
 2.0319637156167865 41.468603403127645
 2.033994663221001 41.47025304403792
 2.0345865965190204 41.47139749550093
 2.0360346071389643 41.47263096719211
 2.0360214956698757 41.47301853229926
 2.036009345968948 41.47337764104635
 2.0367101393232296 41.47406426154044
 2.0367722703369293 41.4741251344557
 2.0394944984840686 41.47679210857213
 2.038492079862221 41.47760142951279
 2.040255277029719 41.48079914210022
 2.040261188429951 41.48080989331569
 2.041786151751256 41.48070631421075
 2.0434480530761743 41.48414252309683
 2.0435864868177864 41.48442874320659
 2.0438579518385986 41.48499000973574
 2.0438755075414674 41.485026317563964
 2.043925997455774 41.485130690202524
 2.0457116427167907 41.485875423569716
 2.0457445143301753 41.48588911670423
 2.048128609581946 41.486054347981174
 2.0498443761327505 41.488868276292415
 2.0496638007584056 41.49163066410815
 2.0503700194181613 41.49378001744445
 2.0504779085043134 41.49432021139859
 2.050724290082613 41.495553788423585
 2.052072393621003 41.4974863709759
 2.0526842267607863 41.49827814848689
 2.052678596331189 41.50004246968837
 2.052704358134145 41.5003733198952
 2.0542762378652872 41.50286991307242
 2.0562314595540907 41.502758444705194
 2.055536328384202 41.50720905025725
 2.0547981753211313 41.50833883036912
 2.054908220776663 41.50974914150435
 2.0515566111170935 41.51223761754206
 2.0532138957365547 41.5138217631546
 2.0570847604060254 41.516152325603336
 2.0584086531964534 41.51853318930046
 2.061896107950443 41.51928310068741
 2.0633987540599557 41.519606211821184
 2.0643662377798653 41.51981420072633
 2.0644060859380846 41.51982276800541
 2.0644882883161197 41.51984045360572
 2.064911234277037 41.519264702902504
 2.0649066560488865 41.518871947345744
 2.0648911491259487 41.51753629741728
 2.06483803123243 41.51296579545192
 2.0680286149066816 41.50965687065632
 2.072748493335967 41.50690765214459
 2.0739446644948187 41.50704324138667
 2.0754579871868066 41.50679623536522
 2.0761118003933263 41.50673354161353
 2.0767215570530246 41.50687919344796
 2.0803351439582327 41.50774228134002
 2.0806824115345255 41.508297139036884
 2.080898571802097 41.50911701005595
 2.0809500435420394 41.509112110263175
 2.081050371978998 41.509102412936805
 2.0811564196648638 41.50908620861295
 2.0811740264519667 41.50908269625454
 2.0813596377093058 41.5093792408109
 2.081924283733794 41.509490814147696
 2.0824671843681855 41.509599440794744
 2.0834011262822796 41.50978630255962
 2.0836095787735025 41.5098391447627
 2.0835908671964005 41.50987423088488
 2.0846667571471045 41.510154057914804
 2.084908240159415 41.510338650905304
 2.0854478790400233 41.51048432057743
 2.08545564627307 41.51048576784658
 2.0859650593559866 41.51060034223779
 2.08598924273939 41.51058409523228
 2.0861726971167247 41.51046084714759
 2.0869232148602186 41.51059380463216
 2.0875036265750735 41.510690119902286
 2.0875283209067885 41.51072562681788
 2.0886425599140033 41.51107328121352
 2.088767286249035 41.51109627440702
 2.0893743442243164 41.50981826067338
 2.0898518524153613 41.50944214395919
 2.0905834822444858 41.50952876711902
 2.090951163141801 41.509515383470614
 2.0913261420423876 41.509501592787316
 2.0913591438104326 41.50950042509766
 2.0914080377118123 41.5094986240388
 2.091460942817045 41.50949671604107
 2.0915073405353284 41.5094990456233
 2.0915298675546254 41.50951914000063
 2.0915631515015503 41.5095477726152
 2.0921114234069615 41.5094935609348
 2.0923792307192883 41.509466919629524
 2.0923979053079544 41.509466333665756
 2.092556335330596 41.509491233247445
 2.092706633579279 41.50951499912047
 2.092823257810437 41.509533220338646
 2.0928682121870157 41.509540258149634
 2.092903472985371 41.50954573754207
 2.093001121547136 41.5095610017651
 2.093082581912554 41.509573756156314
 2.0933130423970683 41.509614007362266
 2.0933425664770913 41.509619186751515
 2.093518571947998 41.50964861641723
 2.0937637589852973 41.5096896118634
 2.093985530171743 41.509719478949414
 2.0941489745864366 41.509737590359215
 2.0943756956001995 41.50976116966994
 2.094645701054617 41.509787083656114
 2.0948437104850264 41.509806462446114
 2.0951284014500864 41.50983482457994
 2.0954058392935786 41.50986133034044
 2.0956922733691035 41.50988999626121
 2.095896814703153 41.50991041100151
 2.096051515074722 41.509926751884755
 2.096163418986481 41.50993888980775
 2.0962710459444622 41.50994470839874
 2.096321609585282 41.50994509982679
 2.09640487224001 41.50994639724112
 2.0965538492834455 41.50994836619226
 2.096701635566548 41.50994951005476
 2.0968343881911853 41.50995384259178
 2.096934746887166 41.509955117334655
 2.0969637281832183 41.5099577909287
 2.0970196948396844 41.509967030592975
 2.0972045165732625 41.50999803806323
 2.0975250815509385 41.51004983316964
 2.0976722623470225 41.51007388404819
 2.0977278534183377 41.51008175717802
 2.097781540792813 41.51008912158026
 2.0978320909490105 41.510093055654465
 2.0978930330735976 41.510094420233834
 2.0983915097910857 41.51011776889767
 2.0987489625560944 41.51013274138741
 2.099072662910589 41.51014680033035
 2.0992882194361373 41.510158143855264
 2.099356898428207 41.51015776462726
 2.099429177348114 41.51015600900069
 2.099510805878995 41.510152213515255
 2.0997355454713387 41.510141834018896
 2.0997596373128133 41.51014028575469
 2.099783672469904 41.510138032362406
 2.099807653015497 41.51013516108002
 2.099832663740364 41.51012536562808
 2.0998548205549254 41.51012791875413
 2.099961947996976 41.510098371205736
 2.1000564835329953 41.510051290801755
 2.100414911554183 41.50981382112456
 2.1007118054383938 41.509479039773595
 2.101917809056296 41.50869649113695
 2.102308791701921 41.508389679009596
 2.1027783049032283 41.50799361684028
 2.1029590488469716 41.50779381948522
 2.1031395508702486 41.507671450173376
 2.103519163590501 41.50750210832849
 2.1039333429877334 41.507369340864145
 2.1041783996502703 41.50726196237711
 2.1043540772470872 41.50715886269215
 2.104611836703874 41.50701161415838
 2.1048374564539105 41.50685864962564
 2.1049092774424993 41.50672443955012
 2.1051183253511874 41.50670652001069
 2.1051442234391073 41.50671533201547
 2.1071377736195886 41.507393614991756
 2.107593349545016 41.50754858520543
 2.105536584888903 41.50870698016133
 2.108724266710049 41.50934637214158
 2.1094801415590347 41.50893784188869
 2.1089407282838266 41.51040389757192
 2.1091565927536426 41.51040857522106
 2.10922878112582 41.510600689673694
 2.1093444334541327 41.510781339198935
 2.1096188296206337 41.51112642685197
 2.109795397440288 41.51127577848222
 2.1100239448539084 41.51136087932655
 2.1103643570495283 41.51149816634748
 2.1107323570923584 41.5115433128024
 2.1113035320393396 41.51236642358376
 2.111440757584278 41.51229233092903
 2.112613642933734 41.51381811346642
 2.1126432335525287 41.51419316067929
 2.1119572200711465 41.51578160866749
 2.111879105450425 41.51623768245325
 2.111936156418416 41.51655910096566
 2.112009689897358 41.51708940693697
 2.1128735853444005 41.517554833210895
 2.1128278693087625 41.51759197848141
 2.1127260281232165 41.517696380053096
 2.1126106514427674 41.51781454734535
 2.1125642452514075 41.51786213892684
 2.1125089291761894 41.517918870505206
 2.112391877056479 41.51802886995298
 2.1123552182022385 41.51806389626496
 2.112309290579005 41.518107780559774
 2.1120053564452532 41.51839825121205
 2.1119037266483276 41.51849535827226
 2.111553926087468 41.51883608783285
 2.111073205142337 41.519368337685634
 2.110870302077493 41.51960760000766
 2.1107434560839553 41.51975714266651
 2.1106835348579853 41.51982637678224
 2.1103685053739354 41.52019036962881
 2.110349894634401 41.5202119238817
 2.110201588443963 41.520406672195406
 2.1101285875841627 41.52050259767225
 2.109952475022028 41.52073387654556
 2.1099034470618223 41.52079847365262
 2.1097334707029938 41.5210115042013
 2.109519179340868 41.52128018042565
 2.1098471803303744 41.52136071034599
 2.1101470254000017 41.521434193794306
 2.110400843711893 41.52149650614428
 2.110735067963393 41.52157852531126
 2.110899066350686 41.52161878376476
 2.1109856250490293 41.52164306586781
 2.1112673148792918 41.521712506273666
 2.1113972589150145 41.52174460413272
 2.1116962665682726 41.52181716195302
 2.1117298396639526 41.52182534763242
 2.1117974585353245 41.5218418032313
 2.1118813901301805 41.521857697429
 2.111894166857918 41.52186011701957
 2.111934605804781 41.52186795702934
 2.111952078878415 41.52187138272069
 2.1121149723707275 41.52190414857952
 2.1122291865294054 41.521927196230855
 2.112332971837372 41.52194812561683
 2.112525782640475 41.52198685890729
 2.112578214298377 41.52199742774431
 2.1128605508355753 41.52205422655089
 2.1129176685167788 41.52206572973482
 2.1129686986449023 41.522076009746556
 2.113032528837118 41.52208892783171
 2.1131164452639184 41.52210582112885
 2.113230703484009 41.52212882619015
 2.1134429938426984 41.52217156018521
 2.1139854161191947 41.52228080783238
 2.1140677160055636 41.52229738536646
 2.114249227861148 41.52233394198793
 2.1142493862383676 41.52233397543995
 2.1146433532239324 41.52241328227121
 2.1147129617884315 41.522427306602985
 2.1148446704452617 41.522453811929196
 2.1158958960106333 41.52273065761159
 2.1169003314499064 41.52307546528072
 2.1170372409130582 41.52313728371006
 2.1181730301791926 41.523496792726874
 2.11819466542109 41.52365996294118
 2.11830537471877 41.52356711322595
 2.1185561154584005 41.52369170165522
 2.119360196750715 41.524079822578
 2.120695901501143 41.52473719891927
 2.1209035247528902 41.52483750367217
 2.121028586006283 41.524939490242616
 2.1211432414721982 41.524991287409264
 2.1212683615369765 41.524961756297195
 2.122100073665563 41.52542330135726
 2.123234602627293 41.52604755090786
 2.1237355376703557 41.52633019196979
 2.1237605310297187 41.526344304111305
 2.1238642576241706 41.52640280690687
 2.1238820581103477 41.526412846864055
 2.1252576114176565 41.52714180549621
 2.1254307027551667 41.52723119818741
 2.1255753106478372 41.52730582997717
 2.1258322201081485 41.527438588328394
 2.126087750555984 41.52757048490763
 2.1262946355666474 41.52767726779535
 2.1263900071003894 41.527726513811274
 2.126717026063255 41.52789907560994
 2.1268418828872644 41.52831522949071
 2.1253786665455943 41.528491409081404
 2.125129901425472 41.52836906336794
 2.124984633225325 41.52841604936458
 2.1246060934803874 41.52859970776973
 2.124295233630578 41.52883751052478
 2.124214300264923 41.52893640834591
 2.1240886806890784 41.5291516421029
 2.123933244569114 41.529711223836664
 2.1238860796484387 41.530449006715166
 2.1238666601996288 41.530752777246335
 2.1243584374458586 41.531078587732985
 2.1236555878736376 41.53145062177714
 2.1231584016687624 41.531777735651204
 2.122972324065625 41.53215050230755
 2.1229137187475215 41.53229127985751
 2.123170104273807 41.53249407870717
 2.123863744645162 41.53312457349194
 2.1238399054332597 41.53312659732268
 2.1237914071396853 41.533131806976854
 2.1237609201623164 41.53313506859173
 2.1237038487806066 41.53314383477418
 2.1236425984983778 41.53315246890343
 2.1235751905540994 41.53316582468037
 2.1235162392681066 41.53317905923215
 2.123440933580748 41.533193983146354
 2.123788191592327 41.53336993082542
 2.1238467618364365 41.533399638773545
 2.123886328746434 41.533419590978156
 2.124087530941182 41.53352143138958
 2.124358975287204 41.53365898213923
 2.1248155956223247 41.53361401683266
 2.125010049740641 41.53359485641396
 2.1261901878211567 41.53347411160344
 2.126622154663425 41.533392406600285
 2.1282001895301033 41.53309386454113
 2.1288628158439935 41.533207936794085
 2.1298074543076977 41.53317007454279
 2.131795905056939 41.53353197405708
 2.1323928429518353 41.534413982039574
 2.1339051626305334 41.53324061361453
 2.134344371892902 41.53151886172768
 2.1356360697009023 41.53180142536607
 2.1375648769631317 41.53152683438232
 2.1377393350286233 41.531502002877986
 2.1378508298938774 41.53151024634297
 2.138033859460467 41.531523230234114
 2.138125146688654 41.53153040253844
 2.1383463041468214 41.53154763781384
 2.138486340488782 41.531557865550546
 2.1388704195225188 41.53163962918446
 2.1398951074167805 41.5309634966524
 2.140140387521695 41.53057644181856
 2.1409282167616954 41.529333270007875
 2.1426937929817518 41.52864076495196
 2.1440852614268593 41.528864943045754
 2.1444421787883545 41.5289224421273
 2.1462797298661824 41.527922835456856
 2.1487364182523425 41.525823452896375
 2.1500982602008145 41.524870462409076
 2.1501415078933506 41.52285973690017
 2.15047236782769 41.5225837575575
 2.1507060733910253 41.52246232303392
 2.150965686958908 41.522325558283995
 2.1509843643012156 41.522315779496445
 2.1510936011627906 41.52225884071735
 2.151178268792086 41.522208258546
 2.1512301347796816 41.522172482969744
 2.151288238546422 41.52213056175692
 2.1513136942375226 41.52210915810488
 2.151320079665955 41.52210396467796
 2.15132627177137 41.52209859987342
 2.15133210895292 41.52209298992237
 2.1513375628903275 41.522087230628266
 2.151342814421403 41.52208133637668
 2.1513476346992784 41.52207536696242
 2.1513522628904767 41.522069091070215
 2.151356452885395 41.522062803348305
 2.1513603533486423 41.522056339567115
 2.1513639691786706 41.52204968600217
 2.1513671746102556 41.52204306887564
 2.15136984187947 41.522036237340345
 2.1513723662615956 41.52202941672411
 2.1513743442069337 41.52202250361133
 2.151376123765668 41.52201558140281
 2.1513774337645764 41.52200855424193
 2.1513783648009217 41.52200143156415
 2.151378807944979 41.521994425331016
 2.1513790318485415 41.521987298401264
 2.1513787350688487 41.52198017685138
 2.1513782498906178 41.52197317179919
 2.1513772457888587 41.52196611893011
 2.15137592671427 41.521959097313356
 2.151374098989212 41.52195215706149
 2.151372026200982 41.5219452233148
 2.151369464356069 41.52193831603491
 2.1513667300690575 41.52193165057804
 2.1513633991979706 41.521924939891846
 2.151359808664236 41.52191835340546
 2.1513559150005355 41.52191194708915
 2.151351679447321 41.521905610146185
 2.1513469423783733 41.52189944427746
 2.1513421212291406 41.52189342623288
 2.1513241278757853 41.52187325377827
 2.151446025637297 41.52177156829729
 2.1516022217377353 41.52175629158851
 2.1516238347974412 41.5217510443943
 2.151646732358492 41.521743119627665
 2.151664849926496 41.52173150225316
 2.1516854023075473 41.5217172861827
 2.1517060413182474 41.52169851069854
 2.1517303343565897 41.52167077605095
 2.1517547482980914 41.521641247971594
 2.1517803364705665 41.52160539655327
 2.1517828019932947 41.52160152705546
 2.151862183440123 41.52147988346078
 2.1519495028897806 41.52135157574657
 2.1530966133375298 41.520394642200735
 2.1534309938431213 41.519327417206306
 2.154435138261981 41.519904073824634
 2.155133173304303 41.519845321934945
 2.155816608164675 41.519787806392166
 2.1559364570965607 41.51982757246699
 2.156008099088047 41.51985602803478
 2.1563894770096437 41.51986502583363
 2.1569100296374035 41.51987958581113
 2.157153344045088 41.519999349328714
 2.1572994408949073 41.520018428754746
 2.1578325003723298 41.51999251996444
 2.1578494687261465 41.51997732149865
 2.1578760040312774 41.519954093375766
 2.157906327170271 41.51992818757236
 2.1579450556371933 41.51989877072445
 2.157982515043396 41.519874704694324
 2.1580236799156416 41.51985068808312
 2.1580730376579482 41.519833055251006
 2.158123615836062 41.51981630742407
 2.1581789218465577 41.51980319662946
 2.1582186262266143 41.519799880488435
 2.1584107094353535 41.51978495671156
 2.158680908262153 41.519762643413344
 2.158892257343047 41.519746186075665
 2.1589164909152045 41.519727981380456
 2.158980574191212 41.51968459447801
 2.1591327026428795 41.51962479604912
 2.159272640837452 41.519572126955524
 2.1593599952689346 41.51951720006161
 2.1594530955243676 41.51947401561676
 2.159595799107264 41.51940245500351
 2.159738457170496 41.519332808497886
 2.1598763640149574 41.51926389863786
 2.159898096435111 41.51926137242812
 2.1599334950474045 41.51923769107759
 2.1600284855026484 41.51918433328622
 2.160090845600903 41.51911992929636
 2.1602011376098402 41.519059486329
 2.160247920029097 41.51899135363412
 2.16034717078647 41.51895336557398
 2.160409506085991 41.518887152930965
 2.1604584634457624 41.51883616301966
 2.1604925739626837 41.51880210589275
 2.160538002342489 41.51874749347352
 2.1605786640866533 41.518688247397385
 2.16062646675095 41.51862554696769
 2.1606758344579053 41.51855016291458
 2.160715364290491 41.51848189811253
 2.1607526338282965 41.51840374078378
 2.1607741393480495 41.518347917930726
 2.1607869144089387 41.51829302448453
 2.1607962469099484 41.518238915246215
 2.1608007378966376 41.518188449491404
 2.160799027975418 41.51814420112126
 2.160827567575578 41.518085779498506
 2.1608360896270247 41.518003676822644
 2.160848308279024 41.51792082171928
 2.1608630959150408 41.51782166004743
 2.1608653368737776 41.51781001738273
 2.160934474962638 41.51773802005226
 2.161396025475948 41.51604837163425
 2.1614075509929984 41.51600614664117
 2.162636047757398 41.516144283367204
 2.1626615555469124 41.51614715055431
 2.1630156744627516 41.51618696872056
 2.164532899006668 41.51568539716921
 2.166642840092425 41.51571697844902
 2.169037717362449 41.5150969798302
 2.1712768968656095 41.51509449332695
 2.1724327708800804 41.517264955273774
 2.174583581777392 41.51765465439735
 2.174645834881754 41.52007421293134
 2.1753475934820434 41.520762789821774
 2.181934311824809 41.51759281096955
 2.1864309320944857 41.51709067612808
 2.186802047026573 41.51704922377353
 2.188465196847417 41.516427765581
 2.1887590689576544 41.51616174229731
 2.1889454110483975 41.51589652108048
 2.189051360133575 41.51565652586603
 2.1891135144641236 41.51544603488118
 2.189134967981489 41.51537338373887
 2.189184905559626 41.51503841711463
 2.1892227586984414 41.51475495206463
 2.189283274726575 41.51448884293354
 2.189320484183973 41.514256961415995
 2.1893309972722585 41.51421213816735
 2.1893567274627532 41.51410245435866
 2.1894199200266864 41.51387445684965
 2.1895020201962163 41.51372008063132
 2.1896254881179895 41.513462692648574
 2.1896902991034732 41.51331680331168
 2.1898012951457666 41.51314110857262
 2.1898830688389888 41.51301255649903
 2.189941831380014 41.51289244964871
 2.190058175873855 41.51274692368538
 2.1901866697356533 41.51254552566139
 2.1903033870808333 41.51236987135777
 2.1904492190880887 41.51215568212644
 2.190670663330331 41.511847331989095
 2.19075810808728 41.51172312137282
 2.1908628367393197 41.51159042554561
 2.190955950546243 41.51147056051745
 2.1911190613350873 41.51124788374225
 2.191258572451781 41.51108099655891
 2.191311283008588 41.510986672793145
 2.191433347201174 41.510841184610044
 2.191661520289256 41.511178368191686
 2.191678201915176 41.51115358876003
 2.1914817085678915 41.51079800975235
 2.192043809257143 41.510100832428236
 2.192525742632865 41.509550204353786
 2.1926929832460824 41.50964488102451
 2.1939302914344423 41.50780523964676
 2.19966175884224 41.502655799385586
 2.2005263796338213 41.50119850688497
 2.200737276627685 41.500842992679296
 2.202660678224619 41.502123073294335
 2.203935368821004 41.503677328158275
 2.2043044933245595 41.50350864853096
 2.2043046854324677 41.503508878391536
 2.204900143620826 41.50318666348816
 2.205126424869536 41.50306420039287
 2.208356110756835 41.501316495672555
 2.209510604453556 41.50004090803146
 2.2109150245115945 41.498989402622314
 2.2110246318009614 41.49890738957687
 2.219371774288099 41.496538764610506
 2.2215380816372297 41.496167961842815
 2.2236705456420203 41.49580477787599
 2.224689912061938 41.4934395178745
 2.2252151110438754 41.49222134890003
 2.2252277328125714 41.492223519788084
 2.225797733582379 41.492324274418365
 2.228252655397 41.492071436735685
 2.2291228315399776 41.49198178317305
 2.2300777597756767 41.49237173636717
 2.2313766520862606 41.49290266006844
 2.2314940247778727 41.49287962953685
 2.2314942134878213 41.49287959392104
 2.233954880284914 41.49239711779778
 2.235490190052506 41.49209635039278
 2.236351797295105 41.49165193644557
 2.2368694739571273 41.49138491740853
 2.2383269913984853 41.491468850607724
 2.2392160404973493 41.491521133703756
 2.2409355035788967 41.491622231829
 2.2412468281155493 41.49142834856369
 2.2421213531718007 41.490883717100466
 2.2429195376105655 41.49038905042239
 2.246021327181007 41.490400419483066
 2.2460969337566374 41.490236791705755
 2.246847353421994 41.48861447020588
 2.2470399134187162 41.48863167431533
 2.247305281687905 41.48865539726735
 2.2521305769801763 41.49175714104791
 2.25241258045361 41.4919412724769
 2.2528634039320896 41.492235634983174
 2.253798134069179 41.49211632266513
 2.253962356033977 41.4920953589472
 2.253958589678846 41.49208249536931
 2.2539553394642247 41.49206898245112
 2.2539514224405806 41.4920554415592
 2.2539496300792723 41.49204639928922
 2.2539467749956112 41.492032886276455
 2.253945744155317 41.492023858638696
 2.2539433824660917 41.492001347198055
 2.2539427783941477 41.49199234052389
 2.253942537173218 41.49197879780521
 2.253942615988949 41.49196979586108
 2.253942748487412 41.4919607914579
 2.253943588095127 41.49195179517669
 2.2539440873495464 41.49194280998474
 2.253945394934213 41.491924811938624
 2.2539571587386638 41.491911344997995
 2.254071004310263 41.49197512769313
 2.2541073455137384 41.4920069084844
 2.254177042296149 41.49206592532644
 2.2546167921447156 41.49201020870184
 2.2547986319886695 41.49267342084842
 2.2548640456145965 41.49274590816279
 2.254939809601788 41.49283198725015
 2.255009002254709 41.49290448589416
 2.255059286017644 41.49295885937404
 2.2551194528849563 41.49303131233991
 2.255181666415956 41.49312177619399
 2.255185361988161 41.49313080776371
 2.25520482270876 41.493162474846436
 2.2552419043839347 41.493225771759064
 2.2552665366475875 41.49326641987582
 2.2553039353275874 41.49333421716215
 2.2553439551633767 41.49337053296736
 2.2554145441673388 41.49344754080931
 2.25551033390586 41.49352022037735
 2.25551533645171 41.49363734757102
 2.2555378290366597 41.49419145765156
 2.255543387681674 41.49432661003691
 2.255554187958366 41.494592396404784
 2.255550621512132 41.494610367427505
 2.255496123662806 41.49488926955349
 2.2554778060992233 41.49498371583399
 2.2554667330466764 41.495037673028214
 2.255457763716764 41.49508591155796
 2.2554575251383837 41.49508717838494
 2.255672386881148 41.495872205537474
 2.256482352254941 41.496003533066684
 2.257783890335923 41.496216158084664
 2.2585123316028746 41.49673701987253
 2.2596401905461794 41.49754615930444
 2.2604329944100505 41.49920412112879
 2.2616860887962713 41.50003632235699
 2.263387985190278 41.50168560887817
 2.2627004021180475 41.50248954099925
 2.2627014146911106 41.50249146615319
 2.2627002290276583 41.5024928664799
 2.2631678499135437 41.50338465030762
 2.2635358923276914 41.50408941679622
 2.2635363172877034 41.504090225552225
 2.2635364454312925 41.504090476251484
 2.2635366244549386 41.50409024746643
 2.2635850995143 41.50410067170833
 2.264708608915341 41.50434232074474
 2.265365113597487 41.50448291553321
 2.266584622872176 41.504165285419724
 2.266958360104479 41.50464321860717
 2.266958413661918 41.50464328817007
 2.2683779767674137 41.50412791022217
 2.2682758297202605 41.502135109000044
 2.2695007751307235 41.500700265557306
 2.270990872989701 41.50002972566299
 2.271837340953896 41.499107429272954
 2.277051935282219 41.49755376848279
 2.278119006088485 41.49580257609021
 2.2801390789815175 41.49502592526093
 2.2804318509533554 41.49463100811612
 2.280927161666355 41.49396277772343
 2.283032805193406 41.491148094298886
 2.283290381286657 41.49019937541521
 2.2875951372345713 41.48719323034114
 2.287597240623716 41.48717541590511
 2.2877015632510007 41.48629647632584
 2.2908826567728564 41.48361213790687
 2.2922857400315584 41.4824671154186
 2.2926559939730313 41.4819098464564
 2.2929895951631636 41.48140773525727
 2.2931062085178797 41.481167458901716
 2.2943218343308502 41.47866232373349
 2.295768331396051 41.4770200763728
 2.295819327923818 41.47572078333858
 2.2954330292375555 41.475741809214014
 2.295413222804399 41.47560156565492
 2.295424503279084 41.47553459543814
 2.2954641512350475 41.47546502455084
 2.295526551041603 41.47536803772585
 2.2955965051008795 41.475265431874575
 2.2955935919151056 41.475188313634796
 2.295611094562383 41.475024569878485
 2.295634032797799 41.47487553325773
 2.2956909620125328 41.4747368325305
 2.295785315975843 41.47459555849035
 2.295806506791937 41.47454163122003
 2.295821692314147 41.47442130583017
 2.2958472205699656 41.47423455403668
 2.2958489918505522 41.474071243998104
 2.2958309691274983 41.473910192885754
 2.2957986493973217 41.47378721377085
 2.2960004374001426 41.473666294981015
 2.2962089651311897 41.472634596014245
 2.2963825214481717 41.472164184699984
 2.2967333547005895 41.47229882554173
 2.296734822085187 41.472293999818326
 2.2899105264452895 41.46963804017411
 2.281245985428142 41.465825695867466
 2.2798101818151464 41.46494648832511
 2.2800446383207533 41.46444899793048
 2.279412767769944 41.46477346983314
 2.27685563077681 41.46423561166858
 2.276515363591107 41.46404725912708
 2.2706524295856716 41.46080154720213
 2.2700802112291 41.46053173538651
 2.2676785155149553 41.459399234000415
 2.262383483755442 41.45544035227086
 2.261817459640826 41.455017114294414
 2.259622048848844 41.453375453045055
 2.2588215671798006 41.45277684352041
 2.2584878855360184 41.452527258380606
 2.25483844937535 41.4497980559672
 2.2547710953170017 41.44972183878422
 2.2540148346645252 41.44886696072653
 2.2529704867896023 41.44768634723809
 2.2515292307115495 41.44605693751115
 2.2506620780991873 41.44507653402362
 2.2480456581945414 41.4421182270407
 2.245975501037098 41.43977723943783
 2.2452882839961514 41.43860163549657
 2.244621498165716 41.43746093254981
 2.244124800672833 41.43661112886294
 2.2420196230238925 41.433009059973024
 2.2409233552718155 41.43113198791989
 2.240313060084789 41.43113169007074
 2.238026633633898 41.42695135570882
 2.237462515796514 41.42588830086091
 2.235622786483957 41.423398012108045
 2.235078088117191 41.42273697974192
 2.234931930477642 41.42255959631124
 2.233448992327748 41.42075976092885
 2.2331313377377904 41.419847981321
 2.2330283190054105 41.419552277915564
 2.232577715357052 41.41825903802829
 2.230407265560628 41.41670370066123
 2.2291463389290542 41.41529259425282
 2.2287321471957036 41.414523355659014
 2.2287179275161844 41.41449694455428
 2.2282325624821113 41.413595566306384
 2.2288616906733445 41.413099848390196
 2.227399301583132 41.412609454009534
 2.226999290858547 41.412533511664286
 2.2251402784962644 41.412180614383935
 2.2227049273219963 41.41241000456419
 2.222539997860895 41.41242553962323
 2.222583389827186 41.41240762310189
 2.2227878517525235 41.412323217732755
 2.2227984194889103 41.41231884924434
 2.2228841739378624 41.41216250938442
 2.223038236726599 41.4120932115619
 2.22312963732573 41.41205207862866
 2.223254569684959 41.41198944801173
 2.2258451924283187 41.410937011477415
 2.2270204919036534 41.41045952385271
 2.227191959744548 41.41038985976111
 2.2292068267693534 41.409571229347534
 2.2261332403569236 41.405283412154205
 2.2246914523504944 41.40635072380546
 2.2244030298602238 41.40591432961876
 2.223639972760215 41.40620041995975
 2.221667424979586 41.40462908831903
 2.222264293147524 41.4041870678103
 2.2227142456688784 41.404923724326345
 2.2232802047745124 41.405428959414685
 2.223593041964676 41.40518242946316
 2.2230706193739684 41.404700082004496
 2.2224625494874974 41.40369830352488
 2.222099002474051 41.40340386638622
 2.2218893191428424 41.40357314871702
 2.2220187569264467 41.40380509340678
 2.220040225157971 41.405273582020975
 2.217853649125612 41.404052826801696
 2.2170944428462547 41.40304173996644
 2.2184752980297695 41.40211948155679
 2.218256462325381 41.40193452955098
 2.216833142768595 41.40288514943082
 2.2158950205258563 41.40217027301155
 2.2142573022166556 41.399989010723644
 2.215705755974342 41.39891686755845
 2.215304903854018 41.39862074014794
 2.2141948269816623 41.39944210923724
 2.2116410954936847 41.397495802134976
 2.2107086355286794 41.396253639867304
 2.2120250664472394 41.39521888151214
 2.211473363674393 41.39481921131301
 2.211274614296137 41.39467521380323
 2.2097239644842883 41.39588881205673
 2.206807563011589 41.393775740732224
 2.205302939854149 41.391633718775715
 2.205762476177682 41.39122280190612
 2.2063516814447266 41.3907759906494
 2.2063094416314777 41.39074410102788
 2.20575768453721 41.39032748630595
 2.2050026123769992 41.390905873357895
 2.2021178155636933 41.39000492428988
 2.2014169362553035 41.38878536661889
 2.202760364548828 41.38777336717849
 2.202989284523 41.38794515378019
 2.2036896280790716 41.38741885114543
 2.2033632392705758 41.386874474387284
 2.2030437279766457 41.386421723833934
 2.2026115716501224 41.38588912118496
 2.2022100028662415 41.38544783178742
 2.2017161729973163 41.384971769941316
 2.2012082551984027 41.384539158841385
 2.2007939906965097 41.38422021722928
 2.2001209242647293 41.383807537620335
 2.1995728280347597 41.38353231706696
 2.1991496432811437 41.383850321447234
 2.1998946150607237 41.38420082429254
 2.20003026471194 41.3841539490709
 2.2004015927939164 41.384383555592485
 2.200711790579053 41.38460860920511
 2.201207671468879 41.385022743971504
 2.2018973487651805 41.385677206219924
 2.202680496254238 41.38659370317102
 2.2023996919984254 41.3868052757535
 2.20128946754104 41.38596972079744
 2.2014948239613896 41.385814311010655
 2.2008394636095217 41.385320366742214
 2.200115340731568 41.38586607839863
 2.2018820356970004 41.38719555810225
 2.200461040576213 41.388267253522656
 2.200342293662735 41.388178620618305
 2.20022419417015 41.388267107628494
 2.198400093121953 41.3868953977042
 2.1985179195636038 41.38680543495959
 2.198400032985903 41.38671687802446
 2.19952976756476 41.385864552626884
 2.2000674207044866 41.385180116002516
 2.199727582451715 41.38493667551949
 2.1995567921736967 41.384814333089665
 2.199160377349994 41.38462349727837
 2.196422399243247 41.38350782574735
 2.195424492112249 41.38189504493134
 2.197343851700333 41.381203835563035
 2.19677757922907 41.380269778863656
 2.194870758326882 41.38095647384327
 2.1939100285738165 41.37918501901156
 2.1935673242612 41.37854678550887
 2.192906333515058 41.37731577628276
 2.189493015259641 41.37067971968682
 2.1899082452625045 41.36967880215134
 2.1910871348826655 41.36937854475736
 2.191554282216299 41.370127222965344
 2.192040861315213 41.369948732560125
 2.1878239700271904 41.36342543864361
 2.187166060938242 41.36171505177827
 2.1872369843554202 41.36169958327451
 2.1871385387634197 41.361443512368844
 2.186899680370458 41.361495604393824
 2.1854156762608463 41.357635185107334
 2.1845335144300004 41.3578265389441
 2.184722797059213 41.358318734788284
 2.1852115556867995 41.358212375388746
 2.1870215286347494 41.36293288024435
 2.186482038044802 41.3630502724462
 2.1866279246288585 41.36343073243886
 2.1872341957291868 41.36356071947638
 2.1892499051992287 41.36667918739424
 2.1878637084049943 41.36718767342498
 2.1875525705110785 41.36670633130754
 2.187269171249254 41.36601160527322
 2.1867874377857524 41.365418169604006
 2.1859440554138097 41.364785857846464
 2.186201379507225 41.364416038832296
 2.186885059754364 41.364165132431935
 2.1867033681424255 41.36387940436613
 2.1859238664642033 41.364167136705234
 2.1855644400595544 41.36469497131084
 2.1852915977490555 41.36459076331717
 2.185076784096612 41.36523743286458
 2.184900701396476 41.365202629201704
 2.184746862541392 41.36566573280663
 2.1852870470017516 41.36578567557725
 2.1853875415808415 41.365483122614684
 2.1866226537156743 41.366926915300894
 2.186881145489863 41.36815376839662
 2.186458947069598 41.368193454255916
 2.1865089183347264 41.368472269195614
 2.1869063514154634 41.368434911523266
 2.1872154302494087 41.37009337707365
 2.1869790412544137 41.370117518111684
 2.1867462415190135 41.36892492384909
 2.1864642938613397 41.3689542540019
 2.186283295329481 41.36794436587264
 2.185068615645298 41.368065428532304
 2.1851357339867548 41.36844747558309
 2.1845455573512984 41.368506290822836
 2.184895839552949 41.37037740905225
 2.1844863956597225 41.370415251153844
 2.184573477286987 41.37095989996597
 2.1870792784121282 41.37069646123108
 2.1871341823940287 41.3710618011283
 2.185657423271827 41.37118824649937
 2.1858666882290674 41.372454978373746
 2.187350415069566 41.3723262568408
 2.187477601253254 41.373115959319854
 2.1871016710776625 41.373150912367734
 2.186740552930383 41.37326217296985
 2.1868537255864298 41.37347198629004
 2.186719614579662 41.37354906038768
 2.187066106451965 41.37389625276049
 2.187410858372373 41.3745321160122
 2.186662136407147 41.374764899446504
 2.185988004713369 41.374502611116945
 2.1856824300903117 41.37253356010591
 2.1848354068415 41.372603065472816
 2.1841385306832906 41.3729293032686
 2.184284571663437 41.37309160402218
 2.184876471020578 41.37282192570931
 2.184921691378179 41.373106579252564
 2.184314049683007 41.373338089566815
 2.1843940360779306 41.37346973623241
 2.184941566503511 41.373262137033635
 2.1849921039269056 41.37354997325018
 2.184368731500217 41.373737521786495
 2.184439601212635 41.373871490687904
 2.1850157789166857 41.3736990005235
 2.185062439440003 41.37399283408821
 2.1843977647411315 41.374133962265596
 2.1844529882964627 41.37427499857657
 2.1850855934096782 41.374138569980914
 2.185133355515778 41.374439247321206
 2.184464442702317 41.37454673059377
 2.1845018011757693 41.3746896939106
 2.1851564639633616 41.37458476647753
 2.185203781227176 41.374882713461886
 2.1846519651526037 41.37493228917407
 2.1846773541048137 41.375077248057664
 2.185216705791852 41.375026944349884
 2.1867380724982612 41.37560307727795
 2.186798650704046 41.37586515945967
 2.186566712622971 41.37589700516484
 2.186611538098079 41.37609097696928
 2.186843475496603 41.376059129394804
 2.187218776995735 41.377546505406286
 2.186328044764087 41.379772913886825
 2.186196585076459 41.37984248435973
 2.186125092104543 41.38002416338669
 2.184715373743399 41.38069523464181
 2.1842035948275043 41.38063185898347
 2.1837716934380755 41.38051768465224
 2.1835684791565733 41.380463963534346
 2.185025724400064 41.376729116101885
 2.1828564628281826 41.37400774529861
 2.180998447856469 41.374843327008435
 2.1807967868867824 41.37539699684034
 2.1815130804099376 41.375092554683995
 2.1814263761531056 41.37537219682849
 2.183186339153787 41.3775657109202
 2.1824503366088663 41.37942810493449
 2.1824071710752455 41.37944767759167
 2.1795812528407477 41.37590853478214
 2.180794383532839 41.37539800653637
 2.1809960055511137 41.37484441769324
 2.1795424913458707 41.37550635033889
 2.178867805653664 41.374661632582544
 2.1782031827669304 41.37383300766198
 2.183134161183533 41.371598460620035
 2.1820804571680874 41.370279211017255
 2.1776390999363486 41.37229889788559
 2.1774545344139686 41.37206435141065
 2.177128260838295 41.37209306193693
 2.1768201607670754 41.36988911627836
 2.1771731432864936 41.369858860697285
 2.177090169079147 41.36930811954759
 2.176737057716984 41.369338446368225
 2.1764604605824385 41.36746172660462
 2.1767769311992353 41.36743389350467
 2.1765928126401204 41.3671452045582
 2.179651819933327 41.36603621914703
 2.1798029828357572 41.36627928853845
 2.1808743958566637 41.36587530251634
 2.180543371059993 41.36537395579506
 2.1823218528899235 41.36472791664078
 2.1823595710710064 41.36478665327871
 2.182812512565661 41.36487934209879
 2.1827004654993143 41.36519758377677
 2.1832095668247096 41.36531066819945
 2.183342037352359 41.364876238325465
 2.1831713978244442 41.36483847983209
 2.1833950278963856 41.364168898966504
 2.1835462412504985 41.363275243973476
 2.183167453750463 41.36320432466231
 2.1793234355711486 41.35717357746841
 2.1773771405906834 41.354167406808976
 2.176093155631793 41.35200544031854
 2.1761005275256813 41.351597061737365
 2.1759479457997273 41.35132794556209
 2.175449543968672 41.35074161181268
 2.1752896307698912 41.35029094913395
 2.171976733318928 41.33500534903674
 2.1700031114281675 41.32646612394401
 2.17318928600615 41.31708768517148
 2.1723456667084164 41.316924790503734
 2.1691885515091323 41.32633769736889
 2.1712172035479202 41.33511548147785
 2.169833568847056 41.33528179337785
 2.1703965168548653 41.33786502821405
 2.16979201037147 41.337937682406505
 2.172148239832251 41.34877481917149
 2.171793774665736 41.34881857869867
 2.171854101734265 41.349079810862186
 2.1719180853516065 41.34923157347474
 2.1720689499931023 41.34947114558246
 2.1723919325314336 41.349352709522854
 2.1749117279989463 41.353245010384704
 2.174645961655034 41.35333934614737
 2.1748822143211326 41.35368420616294
 2.1751314154776886 41.353586787778305
 2.178115800766777 41.35821044644773
 2.177806311919927 41.358333229410064
 2.1780573564445853 41.35872438819548
 2.178371298213619 41.35860702419889
 2.182151614466762 41.36446381669252
 2.1803730937491355 41.365110413067235
 2.1793434435859163 41.36349659908277
 2.1789130443167486 41.3636573237116
 2.179200522303199 41.36410002162807
 2.1759959739121664 41.3652633845466
 2.1733676548253125 41.36181689791784
 2.176772131749985 41.36055896590706
 2.1754573145217377 41.358530588542486
 2.1709584363528354 41.36018979678558
 2.1699688866093485 41.35865825012103
 2.1731354636352544 41.356530886786736
 2.167444185836945 41.347873453035454
 2.1671980606882877 41.34796949971741
 2.1675102748316117 41.34843727573196
 2.1633146525611737 41.351268844458794
 2.1631409119835565 41.3512256661073
 2.1625556315411467 41.35189503024285
 2.161471919903111 41.35137545302776
 2.161616678668073 41.35120402466688
 2.1615039181709252 41.35114955217492
 2.1659446225788344 41.34589003478135
 2.1654125960952855 41.34563495515148
 2.1617407332259773 41.34998387228576
 2.1604218432439315 41.34935149745409
 2.1607892365848986 41.348906813241136
 2.160421750561556 41.34873165771093
 2.1615726767204575 41.347366466746244
 2.153325172714941 41.34265299157656
 2.152907805594255 41.34272013680707
 2.1531515462136968 41.34442242132472
 2.1527888849786 41.34445104667309
 2.1529405015816367 41.34555237646193
 2.1508802581115978 41.34574740479981
 2.1506346315621983 41.34413205372968
 2.1496224866465785 41.336620034795914
 2.1456725521761824 41.33650392990042
 2.1456904474131444 41.33624498629648
 2.14534097707479 41.336364363746284
 2.1443555760780506 41.33476885427711
 2.147357159593274 41.33371726363795
 2.1459230713817563 41.33139142889037
 2.1461653160806105 41.33130881714512
 2.1459810451217383 41.331010052786
 2.1485156393401845 41.33012508278
 2.1557241104129914 41.341834950442085
 2.1592273586199564 41.34342124541538
 2.160699511206307 41.34284938757801
 2.1666100930123573 41.34188455264385
 2.165783976777116 41.34000323538389
 2.1649645795096784 41.34013701376068
 2.1591786536400335 41.326982270006454
 2.1585025039669543 41.326999657024174
 2.1588448951694446 41.3277783098523
 2.1546405934860857 41.327803389849144
 2.1544538687790493 41.327139077085675
 2.153826827188349 41.3271428001056
 2.15368686006732 41.326647747210195
 2.153412224719633 41.32595723895682
 2.1531467262471664 41.32517158959711
 2.1529171409159287 41.32436263182749
 2.152418181594205 41.323144478128214
 2.152932312166969 41.32296427440043
 2.1525289632186313 41.322296929017135
 2.151964877476261 41.322494650208476
 2.151028354230921 41.32094504641432
 2.1506753298109227 41.32096555225184
 2.1468538886922093 41.315846230325064
 2.146275438992953 41.31486495625221
 2.1458382609063635 41.31447943347868
 2.1385414947423347 41.30567678710386
 2.119802315449397 41.29206447690887
 2.1056589888919306 41.286302326473916
 2.0918028917716467 41.28224274446903
 2.0748422597478866 41.27727079721811
 2.072184815300404 41.27670465748032
 2.0664403729729743 41.27527316557701
 2.0664299500809045 41.275061751556926
 2.0664191765292514 41.274843641997705
 2.0650121643180683 41.27516740907084
 2.0465254620557043 41.27067848941808
 2.0447422220778724 41.270306753534406
 2.0291882756747848 41.26731758059882
 2.0268529630062035 41.26686854396091
 2.009874081040469 41.26501667811218
 2.0031817118137076 41.26472334261809
 1.9999432929295586 41.26450427349159
 1.9888994132400024 41.26433106117518
 1.9820999518049889 41.264223888606665
 1.9795978851361093 41.26418434372827
 1.976199150864791 41.26425820174225
 1.9717208633826155 41.26435536493544
 1.9654852264504887 41.26449036466358
 1.9612526567700603 41.26458180618784
 1.9575116317522234 41.26440650489859
 1.9456621810048174 41.26385043549179
 1.9446918891064595 41.26380222126058
 1.9446562514513956 41.263856397887324
 1.9444998616631366 41.264094318906864
 1.9431497967297058 41.266147983614005
 1.9430548915558752 41.266292331404394
 1.942715462565474 41.26660443403837
 1.941219059020393 41.26798038550709
 1.9397965863348188 41.26928828983198
 1.940121961745632 41.270436286135116
 1.937598633358418 41.27478483414137
END
END
